<svg width="112" height="26" viewBox="0 0 112 26" fill="none" xmlns="http://www.w3.org/2000/svg">
<path d="M28 17.1111C28 22.6341 21.7319 26 14 26C6.26811 26 0 22.6341 0 17.1111C0 11.5881 6.26811 6 14 6C21.7319 6 28 11.5881 28 17.1111Z" fill="#C6E5B3"/>
<path d="M24.6983 10.1389C25.2435 9.71052 25.6835 9.16731 25.9858 8.54944C26.288 7.93158 26.4448 7.2549 26.4444 6.56951C26.4418 5.44409 26.0171 4.35902 25.2513 3.52135C24.4854 2.68368 23.4322 2.15206 22.2925 2.02795C21.1527 1.90383 20.0063 2.1959 19.072 2.84843C18.1377 3.50095 17.481 4.46825 17.227 5.56573C16.1955 5.18398 15.1024 4.98797 14 4.98712C12.8606 4.98712 11.7748 5.19704 10.773 5.56573C10.519 4.46825 9.86226 3.50095 8.92796 2.84843C7.99366 2.1959 6.84727 1.90383 5.70755 2.02795C4.56783 2.15206 3.51456 2.68368 2.74875 3.52135C1.98293 4.35902 1.55819 5.44409 1.55556 6.56951C1.55556 8.01298 2.23767 9.29919 3.30167 10.1389C1.24444 12.1846 0 14.7257 0 17.2562C0 22.9476 6.26811 18.0195 14 18.0195C21.7319 18.0195 28 22.9476 28 17.2562C28 14.7257 26.7556 12.1846 24.6983 10.1389Z" fill="#77B255"/>
<path d="M6 9C7.65685 9 9 7.88071 9 6.5C9 5.11929 7.65685 4 6 4C4.34315 4 3 5.11929 3 6.5C3 7.88071 4.34315 9 6 9Z" fill="white"/>
<path d="M6 8C6.55228 8 7 7.55228 7 7C7 6.44772 6.55228 6 6 6C5.44772 6 5 6.44772 5 7C5 7.55228 5.44772 8 6 8Z" fill="#292F33"/>
<path d="M22 9C23.6569 9 25 7.88071 25 6.5C25 5.11929 23.6569 4 22 4C20.3431 4 19 5.11929 19 6.5C19 7.88071 20.3431 9 22 9Z" fill="white"/>
<path d="M22 8C22.5523 8 23 7.55228 23 7C23 6.44772 22.5523 6 22 6C21.4477 6 21 6.44772 21 7C21 7.55228 21.4477 8 22 8Z" fill="#292F33"/>
<path d="M11 16C11.5523 16 12 15.7761 12 15.5C12 15.2239 11.5523 15 11 15C10.4477 15 10 15.2239 10 15.5C10 15.7761 10.4477 16 11 16Z" fill="#5C913B"/>
<path d="M17 16C17.5523 16 18 15.7761 18 15.5C18 15.2239 17.5523 15 17 15C16.4477 15 16 15.2239 16 15.5C16 15.7761 16.4477 16 17 16Z" fill="#5C913B"/>
<path d="M41.2841 11.2017L38.5142 11.3722C38.4669 11.1354 38.3651 10.9223 38.2088 10.733C38.0526 10.5388 37.8466 10.3849 37.5909 10.2713C37.34 10.1529 37.0393 10.0938 36.6889 10.0938C36.2202 10.0938 35.8248 10.1932 35.5028 10.392C35.1809 10.5862 35.0199 10.8466 35.0199 11.1733C35.0199 11.4337 35.1241 11.6539 35.3324 11.8338C35.5407 12.0137 35.8982 12.1581 36.4048 12.267L38.3793 12.6648C39.4399 12.8826 40.2306 13.233 40.7514 13.7159C41.2723 14.1989 41.5327 14.8333 41.5327 15.6193C41.5327 16.3343 41.322 16.9616 40.9006 17.5014C40.4839 18.0412 39.911 18.4626 39.1818 18.7656C38.4574 19.0639 37.6217 19.2131 36.6747 19.2131C35.2306 19.2131 34.08 18.9124 33.223 18.3111C32.3707 17.705 31.8712 16.8812 31.7244 15.8395L34.7003 15.6832C34.7902 16.1236 35.008 16.4598 35.3537 16.6918C35.6993 16.919 36.142 17.0327 36.6818 17.0327C37.2121 17.0327 37.6383 16.9309 37.9602 16.7273C38.2869 16.5189 38.4527 16.2514 38.4574 15.9247C38.4527 15.6501 38.3366 15.4252 38.1094 15.25C37.8821 15.0701 37.5317 14.9328 37.0582 14.8381L35.169 14.4616C34.1037 14.2486 33.3106 13.8793 32.7898 13.3537C32.2737 12.8281 32.0156 12.1581 32.0156 11.3438C32.0156 10.643 32.205 10.0393 32.5838 9.53267C32.9673 9.02604 33.5047 8.63542 34.196 8.3608C34.892 8.08617 35.7064 7.94886 36.6392 7.94886C38.017 7.94886 39.1013 8.24006 39.892 8.82244C40.6875 9.40483 41.1515 10.1979 41.2841 11.2017ZM43.4379 19V8.09091H46.4634V19H43.4379ZM44.9577 6.68466C44.5079 6.68466 44.122 6.53551 43.8001 6.23722C43.4828 5.93419 43.3242 5.57197 43.3242 5.15057C43.3242 4.7339 43.4828 4.37642 43.8001 4.07812C44.122 3.77509 44.5079 3.62358 44.9577 3.62358C45.4076 3.62358 45.7911 3.77509 46.1083 4.07812C46.4303 4.37642 46.5913 4.7339 46.5913 5.15057C46.5913 5.57197 46.4303 5.93419 46.1083 6.23722C45.7911 6.53551 45.4076 6.68466 44.9577 6.68466ZM51.9126 4.45455V19H48.8871V4.45455H51.9126ZM57.3619 4.45455V19H54.3363V4.45455H57.3619ZM61.6534 23.0909C61.2699 23.0909 60.91 23.0601 60.5739 22.9986C60.2424 22.9418 59.9678 22.8684 59.75 22.7784L60.4318 20.5199C60.7869 20.6288 61.1065 20.688 61.3906 20.6974C61.6795 20.7069 61.928 20.6406 62.1364 20.4986C62.3494 20.3565 62.5223 20.1151 62.6548 19.7741L62.8324 19.3125L58.919 8.09091H62.1009L64.3594 16.1023H64.473L66.7528 8.09091H69.956L65.7159 20.179C65.5123 20.7661 65.2353 21.2775 64.8849 21.7131C64.5393 22.1534 64.1013 22.492 63.571 22.7287C63.0407 22.9702 62.4015 23.0909 61.6534 23.0909Z" fill="#77B255"/>
<path d="M77.3707 8.09091V10.3636H70.6378V8.09091H77.3707ZM72.179 19V7.30256C72.179 6.51184 72.3329 5.85606 72.6406 5.33523C72.9531 4.81439 73.3793 4.42377 73.919 4.16335C74.4588 3.90293 75.072 3.77273 75.7585 3.77273C76.2225 3.77273 76.6463 3.80824 77.0298 3.87926C77.4181 3.95028 77.7069 4.0142 77.8963 4.07102L77.3565 6.34375C77.2382 6.30587 77.0914 6.27036 76.9162 6.23722C76.7457 6.20407 76.5705 6.1875 76.3906 6.1875C75.9455 6.1875 75.6354 6.29167 75.4602 6.5C75.285 6.7036 75.1974 6.99006 75.1974 7.35938V19H72.179ZM79.2191 19V8.09091H82.1523V9.99432H82.266C82.4648 9.31723 82.7987 8.80587 83.2674 8.46023C83.7362 8.10985 84.2759 7.93466 84.8867 7.93466C85.0382 7.93466 85.2016 7.94413 85.3768 7.96307C85.552 7.98201 85.7058 8.00805 85.8384 8.04119V10.7259C85.6964 10.6832 85.4999 10.6454 85.2489 10.6122C84.998 10.5791 84.7683 10.5625 84.56 10.5625C84.1149 10.5625 83.7172 10.6596 83.3668 10.8537C83.0212 11.0431 82.7466 11.3082 82.543 11.6491C82.3441 11.9901 82.2447 12.383 82.2447 12.8281V19H79.2191ZM91.8239 19.2131C90.7206 19.2131 89.7666 18.9787 88.9616 18.5099C88.1615 18.0365 87.5436 17.3783 87.108 16.5355C86.6723 15.688 86.4545 14.7055 86.4545 13.5881C86.4545 12.4612 86.6723 11.4763 87.108 10.6335C87.5436 9.78598 88.1615 9.12784 88.9616 8.65909C89.7666 8.18561 90.7206 7.94886 91.8239 7.94886C92.9271 7.94886 93.8788 8.18561 94.679 8.65909C95.4839 9.12784 96.1042 9.78598 96.5398 10.6335C96.9754 11.4763 97.1932 12.4612 97.1932 13.5881C97.1932 14.7055 96.9754 15.688 96.5398 16.5355C96.1042 17.3783 95.4839 18.0365 94.679 18.5099C93.8788 18.9787 92.9271 19.2131 91.8239 19.2131ZM91.8381 16.8693C92.34 16.8693 92.759 16.7273 93.0952 16.4432C93.4313 16.1544 93.6847 15.7614 93.8551 15.2642C94.0303 14.767 94.1179 14.2012 94.1179 13.5668C94.1179 12.9323 94.0303 12.3665 93.8551 11.8693C93.6847 11.3722 93.4313 10.9792 93.0952 10.6903C92.759 10.4015 92.34 10.2571 91.8381 10.2571C91.3314 10.2571 90.9053 10.4015 90.5597 10.6903C90.2188 10.9792 89.9607 11.3722 89.7855 11.8693C89.6151 12.3665 89.5298 12.9323 89.5298 13.5668C89.5298 14.2012 89.6151 14.767 89.7855 15.2642C89.9607 15.7614 90.2188 16.1544 90.5597 16.4432C90.9053 16.7273 91.3314 16.8693 91.8381 16.8693ZM104.075 23.3182C103.095 23.3182 102.255 23.1832 101.554 22.9134C100.858 22.6482 100.304 22.286 99.892 21.8267C99.4801 21.3674 99.2126 20.8513 99.0895 20.2784L101.888 19.902C101.973 20.1198 102.108 20.3234 102.293 20.5128C102.477 20.7022 102.721 20.8537 103.024 20.9673C103.332 21.0857 103.706 21.1449 104.146 21.1449C104.804 21.1449 105.347 20.9839 105.773 20.6619C106.204 20.3447 106.419 19.812 106.419 19.0639V17.0682H106.291C106.159 17.3712 105.96 17.6577 105.695 17.9276C105.429 18.1974 105.089 18.4176 104.672 18.5881C104.255 18.7585 103.758 18.8438 103.18 18.8438C102.361 18.8438 101.616 18.6544 100.943 18.2756C100.276 17.892 99.7429 17.3073 99.3452 16.5213C98.9522 15.7306 98.7557 14.7315 98.7557 13.5241C98.7557 12.2884 98.9569 11.2562 99.3594 10.4276C99.7618 9.59896 100.297 8.97869 100.964 8.56676C101.637 8.15483 102.373 7.94886 103.173 7.94886C103.784 7.94886 104.295 8.05303 104.707 8.26136C105.119 8.46496 105.451 8.72064 105.702 9.02841C105.957 9.33144 106.154 9.62973 106.291 9.9233H106.405V8.09091H109.409V19.1065C109.409 20.0346 109.182 20.8111 108.727 21.4361C108.273 22.0611 107.643 22.5298 106.838 22.8423C106.038 23.1596 105.117 23.3182 104.075 23.3182ZM104.139 16.571C104.627 16.571 105.039 16.4503 105.375 16.2088C105.716 15.9626 105.976 15.6122 106.156 15.1577C106.341 14.6984 106.433 14.1491 106.433 13.5099C106.433 12.8707 106.343 12.3168 106.163 11.848C105.983 11.3745 105.723 11.0076 105.382 10.7472C105.041 10.4867 104.627 10.3565 104.139 10.3565C103.642 10.3565 103.223 10.4915 102.882 10.7614C102.541 11.0265 102.283 11.3958 102.108 11.8693C101.933 12.3428 101.845 12.8897 101.845 13.5099C101.845 14.1397 101.933 14.6842 102.108 15.1435C102.288 15.598 102.546 15.9508 102.882 16.2017C103.223 16.4479 103.642 16.571 104.139 16.571Z" fill="#C3FFA0"/>
</svg>
